<svg id="SvgjsSvg1001" width="288" height="288" xmlns="http://www.w3.org/2000/svg" version="1.1" xmlns:xlink="http://www.w3.org/1999/xlink" xmlns:svgjs="http://svgjs.com/svgjs"><defs id="SvgjsDefs1002"></defs><g id="SvgjsG1008"><svg xmlns="http://www.w3.org/2000/svg" width="288" height="288" enable-background="new 0 0 20 20" viewBox="0 0 20 20"><rect width="20" height="20" fill="none"></rect><path fill-rule="evenodd" d="M10,3c-3.87,0-7,3.13-7,7c0,3.87,3.13,7,7,7s7-3.13,7-7C17,6.13,13.87,3,10,3z M6,6.71L6.71,6l1.06,1.06L8.83,6l0.71,0.71L8.47,7.77l1.06,1.06L8.83,9.54L7.77,8.47L6.71,9.54L6,8.83l1.06-1.06L6,6.71z M10,16 c-1.65,0-3.15-0.67-4.24-1.76l8.48-8.48C15.33,6.85,16,8.35,16,10C16,13.31,13.31,16,10,16z" fill="#001b94" class="color000 svgShape"></path><polygon fill-rule="evenodd" points="11.41 12.59 10.41 11.59 9.71 12.29 11.41 14 14.21 11.21 13.5 10.5" fill="#001b94" class="color000 svgShape"></polygon></svg></g></svg>